# MagicaVoxel @ Ephtracy

# group
o 

# material
mtllib angry_block.mtl
usemtl palette

# normals
vn -1 0 0
vn 1 0 0
vn 0 0 1
vn 0 0 -1
vn 0 -1 0
vn 0 1 0

# texcoords
vt 0.111328 0.5
vt 0.306641 0.5
vt 0.994141 0.5

# verts
v -2 0 2
v -2 0 -2
v -2 4 2
v -2 4 -2
v -1.4 2.7 2
v -1.4 2.7 1.9
v -1.4 3.1 2
v -1.4 3.1 1.9
v -1.2 2.6 2
v -1.2 2.6 1.9
v -1.2 2.7 2
v -1.2 2.7 1.9
v -0.3 2.5 2
v -0.3 2.5 1.9
v -0.3 2.7 2
v -0.3 2.7 1.9
v 1.2 2.6 2
v 1.2 2.6 1.9
v 1.2 2.7 2
v 1.2 2.7 1.9
v 1.9 2.5 2
v 1.9 2.5 1.9
v 1.9 3.1 2
v 1.9 3.1 1.9
v -1.8 2.5 2
v -1.8 2.5 1.9
v -1.8 3.1 2
v -1.8 3.1 1.9
v -1.1 2.6 2
v -1.1 2.6 1.9
v -1.1 2.7 2
v -1.1 2.7 1.9
v 0.6 2.5 2
v 0.6 2.5 1.9
v 0.6 2.7 2
v 0.6 2.7 1.9
v 1.3 2.6 2
v 1.3 2.6 1.9
v 1.3 2.7 2
v 1.3 2.7 1.9
v 1.5 2.7 2
v 1.5 2.7 1.9
v 1.5 3.1 2
v 1.5 3.1 1.9
v 2 0 2
v 2 0 -2
v 2 4 2
v 2 4 -2
v -2 0 2
v -2 4 2
v -1.8 2.5 2
v -1.8 3.1 2
v -1.4 2.7 2
v -1.4 3.1 2
v -1.2 2.6 2
v -1.2 2.7 2
v -1.1 2.6 2
v -1.1 2.7 2
v -0.3 2.5 2
v -0.3 2.7 2
v 0.6 2.5 2
v 0.6 2.7 2
v 1.2 2.6 2
v 1.2 2.7 2
v 1.3 2.6 2
v 1.3 2.7 2
v 1.5 2.7 2
v 1.5 3.1 2
v 1.9 2.5 2
v 1.9 3.1 2
v 2 0 2
v 2 4 2
v -1.8 2.5 1.9
v -1.8 3.1 1.9
v -1.4 2.7 1.9
v -1.4 3.1 1.9
v -1.2 2.6 1.9
v -1.2 2.7 1.9
v -1.1 2.6 1.9
v -1.1 2.7 1.9
v -0.3 2.5 1.9
v -0.3 2.7 1.9
v 0.6 2.5 1.9
v 0.6 2.7 1.9
v 1.2 2.6 1.9
v 1.2 2.7 1.9
v 1.3 2.6 1.9
v 1.3 2.7 1.9
v 1.5 2.7 1.9
v 1.5 3.1 1.9
v 1.9 2.5 1.9
v 1.9 3.1 1.9
v -2 0 -2
v -2 4 -2
v 2 0 -2
v 2 4 -2
v -2 0 2
v 2 0 2
v -1.9 0 1.9
v 1.9 0 1.9
v -1.9 0 -1.9
v 1.9 0 -1.9
v -2 0 -2
v 2 0 -2
v -1.2 2.6 2
v -1.1 2.6 2
v 1.2 2.6 2
v 1.3 2.6 2
v -1.2 2.6 1.9
v -1.1 2.6 1.9
v 1.2 2.6 1.9
v 1.3 2.6 1.9
v -1.4 2.7 2
v -1.2 2.7 2
v -1.1 2.7 2
v -0.3 2.7 2
v 0.6 2.7 2
v 1.2 2.7 2
v 1.3 2.7 2
v 1.5 2.7 2
v -1.4 2.7 1.9
v -1.2 2.7 1.9
v -1.1 2.7 1.9
v -0.3 2.7 1.9
v 0.6 2.7 1.9
v 1.2 2.7 1.9
v 1.3 2.7 1.9
v 1.5 2.7 1.9
v -1.8 3.1 2
v -1.4 3.1 2
v 1.5 3.1 2
v 1.9 3.1 2
v -1.8 3.1 1.9
v -1.4 3.1 1.9
v 1.5 3.1 1.9
v 1.9 3.1 1.9
v -1.8 2.5 2
v -0.3 2.5 2
v 0.6 2.5 2
v 1.9 2.5 2
v -1.8 2.5 1.9
v -0.3 2.5 1.9
v 0.6 2.5 1.9
v 1.9 2.5 1.9
v -2 4 2
v 2 4 2
v -2 4 -2
v 2 4 -2

# faces
f 3/3/1 2/3/1 1/3/1
f 4/3/1 2/3/1 3/3/1
f 7/3/1 6/3/1 5/3/1
f 8/3/1 6/3/1 7/3/1
f 11/3/1 10/3/1 9/3/1
f 12/3/1 10/3/1 11/3/1
f 15/3/1 14/3/1 13/3/1
f 16/3/1 14/3/1 15/3/1
f 19/3/1 18/3/1 17/3/1
f 20/3/1 18/3/1 19/3/1
f 23/3/1 22/3/1 21/3/1
f 24/3/1 22/3/1 23/3/1
f 25/3/2 26/3/2 27/3/2
f 27/3/2 26/3/2 28/3/2
f 29/3/2 30/3/2 31/3/2
f 31/3/2 30/3/2 32/3/2
f 33/3/2 34/3/2 35/3/2
f 35/3/2 34/3/2 36/3/2
f 37/3/2 38/3/2 39/3/2
f 39/3/2 38/3/2 40/3/2
f 41/3/2 42/3/2 43/3/2
f 43/3/2 42/3/2 44/3/2
f 45/3/2 46/3/2 47/3/2
f 47/3/2 46/3/2 48/3/2
f 51/3/3 50/3/3 49/3/3
f 52/3/3 50/3/3 51/3/3
f 54/3/3 50/3/3 52/3/3
f 56/3/3 54/3/3 53/3/3
f 57/3/3 56/3/3 55/3/3
f 58/3/3 54/3/3 56/3/3
f 58/3/3 56/3/3 57/3/3
f 59/3/3 51/3/3 49/3/3
f 60/3/3 54/3/3 58/3/3
f 61/3/3 59/3/3 49/3/3
f 61/3/3 60/3/3 59/3/3
f 62/3/3 54/3/3 60/3/3
f 62/3/3 60/3/3 61/3/3
f 64/3/3 54/3/3 62/3/3
f 65/3/3 64/3/3 63/3/3
f 66/3/3 54/3/3 64/3/3
f 66/3/3 64/3/3 65/3/3
f 67/3/3 54/3/3 66/3/3
f 68/3/3 50/3/3 54/3/3
f 68/3/3 54/3/3 67/3/3
f 69/3/3 61/3/3 49/3/3
f 70/3/3 50/3/3 68/3/3
f 71/3/3 69/3/3 49/3/3
f 71/3/3 70/3/3 69/3/3
f 72/3/3 50/3/3 70/3/3
f 72/3/3 70/3/3 71/3/3
f 75/1/3 74/1/3 73/1/3
f 76/1/3 74/1/3 75/1/3
f 77/1/3 75/1/3 73/1/3
f 78/1/3 75/1/3 77/1/3
f 79/1/3 77/1/3 73/1/3
f 81/1/3 79/1/3 73/1/3
f 81/1/3 80/1/3 79/1/3
f 82/1/3 80/1/3 81/1/3
f 85/1/3 84/1/3 83/1/3
f 86/1/3 84/1/3 85/1/3
f 87/1/3 85/1/3 83/1/3
f 89/1/3 88/1/3 87/1/3
f 91/1/3 89/1/3 87/1/3
f 91/1/3 90/1/3 89/1/3
f 91/1/3 87/1/3 83/1/3
f 92/1/3 90/1/3 91/1/3
f 93/3/4 94/3/4 95/3/4
f 95/3/4 94/3/4 96/3/4
f 99/3/5 98/3/5 97/3/5
f 100/3/5 98/3/5 99/3/5
f 101/3/5 99/3/5 97/3/5
f 101/2/5 100/2/5 99/2/5
f 102/3/5 98/3/5 100/3/5
f 102/2/5 100/2/5 101/2/5
f 103/3/5 101/3/5 97/3/5
f 103/3/5 102/3/5 101/3/5
f 104/3/5 98/3/5 102/3/5
f 104/3/5 102/3/5 103/3/5
f 109/3/5 106/3/5 105/3/5
f 110/3/5 106/3/5 109/3/5
f 111/3/5 108/3/5 107/3/5
f 112/3/5 108/3/5 111/3/5
f 121/3/5 114/3/5 113/3/5
f 122/3/5 114/3/5 121/3/5
f 123/3/5 116/3/5 115/3/5
f 124/3/5 116/3/5 123/3/5
f 125/3/5 118/3/5 117/3/5
f 126/3/5 118/3/5 125/3/5
f 127/3/5 120/3/5 119/3/5
f 128/3/5 120/3/5 127/3/5
f 133/3/5 130/3/5 129/3/5
f 134/3/5 130/3/5 133/3/5
f 135/3/5 132/3/5 131/3/5
f 136/3/5 132/3/5 135/3/5
f 137/3/6 138/3/6 141/3/6
f 141/3/6 138/3/6 142/3/6
f 139/3/6 140/3/6 143/3/6
f 143/3/6 140/3/6 144/3/6
f 145/3/6 146/3/6 147/3/6
f 147/3/6 146/3/6 148/3/6
